<?xml version="1.0" encoding="utf-8"?>
<!-- Generator: Adobe Illustrator 27.1.1, SVG Export Plug-In . SVG Version: 6.00 Build 0)  -->
<svg version="1.1" id="Capa_1" xmlns="http://www.w3.org/2000/svg" xmlns:xlink="http://www.w3.org/1999/xlink" x="0px" y="0px"
	 viewBox="0 0 3840 2160" style="enable-background:new 0 0 3840 2160;" xml:space="preserve">
<style type="text/css">
	.st0{fill:#FFFFFF;}
</style>
<g>
	<g>
		<path class="st0" d="M477.79,1347.01c-1.73-37.9-8.64-60.3-24.2-74.08l-5.19-3.45v1.72c-1.73,0-10.37-6.89-22.47-18.95
			c-27.66-25.84-63.97-46.52-115.83-65.47c-48.41-17.23-102-48.24-124.47-68.91c-5.19-6.89-70.88-65.47-81.25-82.69
			c-22.47-34.46-32.85-60.3-36.3-87.86c0-13.78-3.46-34.46-5.19-46.51c-1.73-8.61-1.73-15.51-1.73-24.12s0-17.23,1.73-27.56
			c10.37-68.91,51.86-215.34,79.52-273.92c31.12-67.19,81.25-129.21,140.03-177.44c15.56-12.06,31.12-22.4,32.85-22.4
			c1.73,0,12.1-6.89,20.75-13.78c24.2-17.23,20.75-17.23,69.15-29.29c31.12-6.89,41.49-8.61,62.24-8.61h19.02
			c46.68,3.45,58.78,8.61,58.78,31.01c0,3.45,1.73,5.17,1.73,5.17h1.73c3.46,0,5.19,5.17,5.19,15.5c0,8.61-1.73,13.78-3.46,13.78
			h-1.73c-3.46,0-5.19,1.72-5.19,3.45s3.46,5.17,6.92,8.61c5.19,3.45,8.64,10.34,10.37,15.51v5.17c0,13.78-5.19,31.01-12.1,36.18
			c-5.19,1.72-6.92,3.45-6.92,6.89c0,1.72,3.46,5.17,12.1,10.34c6.92,3.45,12.1,8.61,12.1,12.06h-10.37c-1.73,0-1.73,0-1.73,1.72
			v5.17c0,5.17-5.19,12.06-10.37,12.06h-1.73l-1.73-1.72c-1.73,0-3.46,1.72-5.19,3.45c-1.73,1.72-17.29,5.17-32.85,6.89
			c-98.54,10.34-171.15,55.13-245.49,156.77c-10.37,15.5-15.56,20.67-20.75,20.67h-1.73c-1.73,0-6.92-1.72-8.64-1.72
			c-5.19,0-22.47,70.63-25.93,111.98c-1.73,15.51-3.46,31.01-3.46,43.07c0,22.4,3.46,41.35,8.64,60.3
			c6.92,22.4,39.76,58.57,74.34,80.97c12.1,8.61,19.02,13.78,19.02,15.51c0,1.72,0,1.72-1.73,1.72c-1.73,0-5.19-1.72-10.37-3.45
			l-8.64-5.17l6.92,8.61c12.1,12.06,24.2,17.23,76.07,27.57c27.66,6.89,60.51,15.5,72.61,20.67c32.85,12.06,81.25,39.62,107.19,60.3
			c32.85,25.84,60.34,82.69,81.09,124.04c20.75,41.35,27.66,70.63,27.66,113.7v13.78c-1.73,49.96-12.1,80.97-43.22,134.37
			c-17.29,31.01-10.21,44.79-37.87,72.36c-27.66,29.29-34.58,34.46-44.95,34.46c-5.19,0-17.29,3.45-24.2,6.89
			c-8.64,5.17-12.1,8.61-12.1,13.78v5.17c0,5.17-3.46,6.89-8.64,10.34c-3.46,1.72-8.64,3.45-13.83,3.45h-6.92
			c-10.37,0-39.76,6.89-51.86,13.78c-5.19,3.45-17.29,12.06-24.2,17.23c-13.83,10.34-19.02,10.34-43.22,12.06
			c-15.56,0-44.95-1.72-63.97-5.17c-96.81-12.06-184.98-34.46-204-51.68c-3.46-3.45-6.92-5.17-8.64-5.17
			c-1.73,0-8.64-3.45-13.83-6.89c-5.19-5.17-8.64-8.61-8.64-13.78c0-1.72,1.73-5.17,1.73-8.61c0-12.06,0-17.23-5.19-20.67
			c-5.19-5.17-8.64-12.06-8.64-18.95c0-5.17,1.73-12.06,6.92-18.95c5.19-8.61,8.64-18.95,8.64-20.67c0-5.17,3.46-6.89,10.37-6.89
			h8.64c3.46,0,3.46,0,3.46-1.72c0,0,0-1.72-3.46-5.17c-1.73-3.45-3.46-6.89-3.46-8.61c0-3.45,1.73-6.89,6.92-12.06
			c3.46-8.61,8.64-12.06,13.83-12.06c1.73,0,3.46,1.72,3.46,5.17c1.73,12.06,1.73,13.78,6.92,15.51h1.73
			c3.46,0,10.37-6.89,17.29-15.51c6.92-8.61,13.83-15.51,15.56-15.51h1.73c1.73,0,1.73,0,3.46-1.72c1.73-1.72,3.46-3.45,6.92-3.45
			c5.19,0,13.83,5.17,22.47,13.78c10.37,10.34,17.29,13.78,31.12,15.51c36.3,5.17,81.25,13.78,84.71,17.23
			c1.73,1.72,5.19,1.72,10.37,1.72c22.47,0,69.15-12.06,95.08-31.01c13.83-8.61,29.39-18.95,36.3-22.4
			c6.92-3.45,19.02-13.78,25.93-24.12"/>
	</g>
	<g>
		<path class="st0" d="M627.95,934.54c-6.31-16.61-7.36-21.19-9.47-21.19l-1.05,0.57c-1.05,0-2.1-2.29-3.16-6.87
			c-1.05-4.01-6.31-20.62-12.62-35.51c-16.83-37.23-18.93-44.67-21.03-56.7c-2.1-12.03-8.41-36.08-12.62-42.38
			c-1.05-2.86-4.21-9.16-5.26-14.89l-1.05-7.45l1.05,4.01l4.21,6.87c0-5.15-9.46-70.45-19.98-144.9
			c-4.21-23.48-4.21-26.35-8.41-27.49c-2.1-1.15-4.21-2.29-4.21-4.01c0-2.29-5.26-5.15-9.47-5.15l-6.31,1.72
			c-2.1,0-4.21-1.15-7.36-3.44c-2.1-2.29-4.21-3.44-7.36-3.44c-2.1,0-4.21,1.15-7.36,2.86c-3.16,1.72-4.21,2.29-6.31,2.29
			l-6.31-2.29c-2.1,0-3.16,1.15-6.31,3.44c-6.31,4.58-9.46,9.16-10.52,16.61c0,2.29-1.05,4.01-2.1,4.58
			c-3.16,1.15-18.93,46.96-18.93,51.55v1.72c0,2.29-2.1,6.87-4.21,10.88c-3.16,5.73-6.31,13.17-6.31,16.61l-1.05,7.45
			c-4.21,3.44-18.93,36.65-26.29,59.56l-10.52,32.65c-2.1,3.44-3.16,6.87-3.16,8.02c0,1.15-2.1,6.87-5.26,12.6
			c-3.16,5.15-6.31,13.75-7.36,18.9c-2.1,4.58-21.03,71.02-21.03,71.02c-2.1,6.3-3.16,13.75-3.16,16.04v1.72
			c0,2.29-1.05,5.15-2.1,6.87c-2.1,2.86-4.21,7.45-4.21,11.45c0,9.74-3.15,22.34-9.46,36.08c-3.16,7.45-5.26,15.46-5.26,18.33v2.86
			c0,2.86,1.05,3.44,7.36,5.15c6.31,1.72,7.36,2.86,7.36,4.58v1.72c0,2.86,0,3.44,8.41,5.15c4.21,1.15,7.36,1.72,9.46,1.72
			c2.1,0,3.16-1.15,3.16-4.01l-1.05-3.44l8.41,4.01c4.21,2.29,8.41,4.58,8.41,5.15l1.05,1.15c2.1,0,4.21-1.15,6.31-2.29
			c2.1-1.15,3.16-1.72,5.26-1.72l3.16,0.57c3.16,1.15,5.26,1.15,7.36,1.15c2.1,0,3.15-0.57,3.15-1.72l-2.1-4.01l4.21,1.72l4.21,1.15
			l2.1-1.72l2.1-3.44c0-0.57,1.05-3.44,3.16-6.3c2.1-4.01,10.52-33.22,14.72-52.69c0-3.44,1.05-4.58,3.16-4.58l24.19,1.15
			l70.46,4.01l8.41,29.21c1.05,8.02,4.21,14.32,5.26,14.89c1.05,0,2.1,5.15,3.16,11.45c1.05,5.73,2.1,12.03,4.21,13.75
			c1.05,1.72,2.1,2.86,4.21,2.86l2.1-1.15v-2.29c0-2.86-1.05-8.02-2.1-10.31v-0.57c0,0,2.1,1.15,3.16,2.86
			c3.16,2.29,5.26,4.01,7.36,4.01h1.05c0,0,1.05,1.15,1.05,2.86c1.05,2.86,2.1,3.44,8.41,5.16c4.21,1.15,7.36,2.29,7.36,2.86v0.57
			c0,0.57,0,0.57,1.05,0.57c2.1,0,4.21-0.57,6.31-1.72l4.21-1.15h2.1c4.21,0,4.21-0.57,4.21-6.3l-1.05-4.58l3.16,1.15
			c2.1,0,4.21-1.15,4.21-2.29h1.05l1.05,1.72c0,2.29,2.1,4.58,3.16,5.16h1.05c5.26,0,11.57-7.45,13.67-15.46v-2.86
			C638.47,976.92,633.21,949.43,627.95,934.54z M523.84,901.32c-1.05,0.57-18.93,0.57-37.86,0.57H468.1
			c-14.72,0-17.88-0.57-17.88-3.44l1.05-5.73c1.05-2.86,4.21-22.91,7.36-44.67c4.21-25.2,8.41-44.1,11.57-50.97
			c2.1-6.3,5.26-14.89,6.31-20.05c2.1-13.17,11.57-52.12,13.67-55.56l1.05-1.72l6.31,63c4.21,46.96,5.26,52.12,10.52,65.29
			c3.16,8.02,8.41,21.19,10.52,29.78c2.1,8.59,5.26,17.18,6.31,18.9l1.05,2.29L523.84,901.32z"/>
	</g>
	<path class="st0" d="M1090.91,664.92c-9.9-23.1-23.11-51.16-28.06-64.36c-4.95-14.85-14.85-33.01-21.45-44.56
		c-34.66-51.16-97.37-92.42-150.18-95.72c-11.55,0-24.75-1.65-26.4-3.3c-1.65-1.65-11.55-3.3-23.1-4.95
		c-13.2-1.65-23.11-4.95-28.06-9.9c-3.3-3.3-4.95-4.95-6.6-4.95c-1.65,0-3.3,1.65-3.3,3.3c-1.65,1.65-3.3,6.6-3.3,11.55
		c0,1.65-1.65,3.3-1.65,3.3s0-1.65-1.65-4.95c-1.65-4.95-4.95-8.25-6.6-8.25c-1.65,0-6.6,0-9.9-1.65l-3.3-1.65
		c-6.6,0-11.55,6.6-14.85,16.5c-1.65,3.3-4.95,8.25-9.9,9.9c-8.25,3.3-16.5,29.71-16.5,49.51v3.3c0,29.71-19.8,247.55-34.66,372.97
		c-8.25,77.56-13.2,148.53-13.2,191.44c0,19.8,1.65,33.01,3.3,39.61c0,3.3,1.65,4.95,1.65,4.95c-1.65,0-1.65,0-3.3-1.65
		c-1.65,0-1.65,49.51-1.65,102.32c0,56.11,0,113.87,1.65,123.77c1.65,6.6,1.65,11.55,1.65,14.85v3.3c-1.65,1.65-3.3,36.31-3.3,75.91
		c0,39.61-1.65,90.77-1.65,112.22c0,13.2-1.65,23.1-1.65,29.7c0,4.95,0,6.6,1.65,6.6l1.65-3.3c1.65,0,1.65,4.95,1.65,13.2
		c0,14.85,1.65,19.8,21.45,47.86c16.5,23.1,21.45,28.06,28.06,28.06h3.3c4.95,0,11.55-1.65,13.2-3.3h1.65c1.65,0,4.95,1.65,6.6,4.95
		c3.3,4.95,4.95,6.6,8.25,6.6c3.3,0,6.6-1.65,9.9-4.95c3.3-1.65,9.9-3.3,14.85-3.3h4.95c4.95,0,4.95-1.65,6.6-8.25l3.3-11.55
		l3.3,13.2c1.65,6.6,4.95,13.2,6.6,13.2s4.95-9.9,6.6-23.1c1.65-16.5,4.95-23.1,8.25-23.1c6.6,0,8.25-16.5,8.25-42.91v-26.4
		c-1.65-19.8-3.3-62.71-3.3-94.07c0-31.36-1.65-62.71-3.3-70.96c0-4.95-1.65-8.25-1.65-9.9c0-1.65,1.65-3.3,3.3-3.3l3.3,1.65
		c6.6,0,13.2-1.65,24.75-9.9c19.8-13.2,61.06-57.76,67.66-72.61c1.65-4.95,13.2-19.8,23.11-31.36
		c21.45-21.45,47.86-57.76,62.71-82.52c4.95-9.9,14.85-26.4,21.45-36.31c18.15-26.41,29.71-49.51,39.61-84.17
		c6.6-16.5,13.2-34.66,16.5-39.61c18.15-28.06,36.31-107.27,39.61-169.98v-19.8C1138.77,790.34,1125.57,739.18,1090.91,664.92z
		 M1010.05,859.65c-6.6,36.31-28.06,122.12-37.96,145.23c-4.95,9.9-9.9,23.1-9.9,28.06c-1.65,3.3-6.6,11.55-11.55,18.15
		c-3.3,4.95-11.55,16.5-14.85,24.76c-11.55,21.45-31.36,46.21-66.01,84.17c-16.5,18.15-33.01,33.01-36.31,36.31h-3.3
		c-3.3,0-3.3-1.65-4.95-11.55c-6.6-54.46-9.9-99.02-9.9-178.23c0-34.66,0-74.26,1.65-125.42c1.65-36.31,1.65-62.71,1.65-79.22
		c0-14.85,0-23.1-1.65-23.1l-1.65,4.95v-1.65c0-4.95,1.65-19.8,4.95-54.46c1.65-14.85,3.3-47.86,3.3-74.26
		c0-26.41,1.65-62.71,1.65-80.87l3.3-33h11.55c4.95,0,24.75,6.6,42.91,13.2c34.66,16.5,54.46,34.66,74.26,70.96
		c6.6,9.9,9.9,18.15,13.2,18.15c4.95,0,13.2,31.36,23.1,69.31c3.3,16.5,8.25,33.01,11.55,36.31c4.95,8.25,6.6,41.26,6.6,72.61
		C1011.7,834.9,1011.7,849.75,1010.05,859.65z"/>
	<path class="st0" d="M1130.7,1361.41h-3.3c-1.65,0-1.65,0-1.65,1.24c0,1.86,1.65,4.95,4.95,11.75c3.3,5.56,4.95,16.08,4.95,22.88
		v6.8c0,6.8,0,14.22,1.65,19.17c0,3.71,1.65,8.04,1.65,12.37c0,12.37-3.3,24.73-4.95,24.73s-1.65,0-1.65-0.62
		c0-0.62-1.65-0.62-1.65-0.62v3.09c0,4.33,1.65,15.46,4.95,35.24c4.95,35.24,9.9,85.95,9.9,117.48c0,15.46-1.65,25.97-3.3,29.06
		c-1.65,2.47-6.6,6.8-11.55,8.66c-4.95,2.47-8.25,5.56-8.25,8.04c0,3.09-1.65,4.33-6.6,4.33c-1.65,0-3.3,0-4.95-0.62
		c-1.65-0.62-8.25-1.86-14.85-2.47c-4.95-0.62-8.25-1.24-9.9-1.24c-3.3,0-4.95,0.62-6.6,1.24c-3.3,1.24-8.25,1.85-9.9,1.85
		c-4.95,0-13.2-8.66-13.2-12.37c0-1.85-1.65-3.09-3.3-3.09h-1.65c-1.65,0.62-1.65,1.24-1.65,2.47v1.85c0,4.95-4.95,8.04-14.85,8.04
		c-3.3,0-6.6-0.62-11.55-1.24c-4.95-1.24-11.55-2.47-14.85-3.09c-1.65-0.62-4.95-3.09-4.95-6.18c-1.65-3.09-3.3-4.95-6.6-4.95
		c-6.6,0-8.25-3.09-9.9-25.35c0-10.51,0-17.93,1.65-17.93l1.65,3.71l3.3-3.71c1.65-3.09,1.65-5.57,1.65-7.42
		c0-1.86,0-2.47-1.65-2.47h-1.65c-1.65,0-3.3-1.24-3.3-4.33c0-3.09,1.65-6.8,1.65-11.75c1.65-9.89,3.3-29.68,3.3-45.14
		c1.65-25.97,4.95-42.66,16.5-99.55c3.3-12.98,6.6-35.24,8.25-49.47c6.6-41.43,16.5-81.62,23.1-95.84
		c1.65-3.09,4.95-11.75,8.25-18.55c1.65-7.42,4.95-13.6,6.6-14.22c1.65-1.24,3.3-4.33,3.3-8.04c0-10.51,9.9-32.15,14.85-33.39
		c1.65-0.62,3.3-1.24,3.3-1.85c0-0.62-1.65-1.86-1.65-3.09c0-1.85,0-3.09,1.65-3.09h1.65c1.65,0,3.3-0.62,4.95-1.85
		c1.65-1.85,6.6-3.09,9.9-3.09c3.3,0,8.25,0.62,11.55,1.85c3.3,0.62,4.95,1.24,6.6,1.24v-1.24c0-1.24,3.3-2.47,8.25-3.71
		c3.3-0.62,4.95-0.62,8.25-0.62c8.25,0,13.2,4.33,16.5,15.46c1.65,4.95,3.3,8.66,3.3,14.22c0,9.27-3.3,22.88-6.6,51.94
		c-1.65,11.13-3.3,34.01-4.95,51.94C1135.65,1354.61,1134,1361.41,1130.7,1361.41z"/>
	<path class="st0" d="M1801.36,1564.34c0,16.5-6.6,31.36-14.85,31.36c-3.3,0-3.3,0-3.3,1.65c0,1.65,0,3.3,1.65,6.6
		c1.65,4.95,1.65,9.9,1.65,11.55c-1.65,3.3-223.34,14.85-266.25,19.8c-13.2,1.65-42.91,3.3-67.66,4.95
		c-39.61,1.65-178.23,4.95-211.24,6.6c-6.6,0-13.2-1.65-13.2-1.65c0-1.65-4.95-3.3-9.9-3.3c-9.9,0-24.75-19.8-24.75-29.7v-3.3
		c0-3.3,0-9.9-3.3-13.2c-1.65-1.65-1.65-4.95-1.65-11.55c0-8.25,1.65-24.76,3.3-56.11c3.3-33.01,21.45-231.04,19.8-240.95
		c0-4.95-1.65-13.2-1.65-23.1c0-8.25,1.65-19.8,1.65-31.36c1.65-21.46,3.3-59.41,3.3-85.82c3.3-67.66,9.9-161.73,13.2-161.73
		c1.65,0,1.65-3.3,1.65-6.6c0-4.95,0-11.55-1.65-18.15c0-14.85,0-42.91,3.3-64.36c1.65-21.45,3.3-52.81,3.3-70.96
		c1.65-18.15,3.3-33.01,4.95-34.66c0,0,6.6-19.8,4.95-21.45c-3.3-4.95-4.95-14.85-4.95-23.1c0-6.6,0-11.55,3.3-11.55h1.65
		c3.3,0,4.95-23.1,8.25-82.52c1.65-31.36,3.3-74.26,4.95-94.07c1.65-16.5,1.65-26.41,1.65-31.36c0-8.25-22.94-73.62,21.45-79.21
		c4.91-0.62,13.2-1.65,14.85-3.3c1.65-1.65,3.3-3.3,4.95-3.3c1.65,0,3.3,1.65,3.3,1.65c1.65,1.65,4.95,3.3,8.25,3.3
		c1.65,0,3.3-1.65,6.6-1.65c4.95-1.65,18.15-3.3,28.06-3.3c9.9,0,26.4-3.3,34.66-4.95c9.9-3.3,21.45-4.95,24.75-4.95
		c4.95,0,6.6,0,6.6,1.65l-3.3,3.3l-4.95,3.3c0,1.65,1.65,1.65,3.3,1.65c3.3,0,13.2-1.65,29.7-6.6c13.2-3.3,245.14-8.25,263.3-9.9
		h16.5c13.2,0,18.15,1.65,21.45,4.95c3.3,1.65,6.6,4.95,9.9,4.95c6.6,0,21.45,19.8,21.45,28.06c0,1.65,3.3,4.95,4.95,4.95
		c4.95,0,8.25,3.3,8.25,9.9c0,3.3-1.65,6.6-3.3,11.55c-3.3,8.25-4.95,11.55-8.25,11.55c-1.65,0-3.3-1.65-8.25-3.3
		c-3.3-1.65-4.95-1.65-6.6-1.65s-3.3,0-3.3,1.65c0,1.65,1.65,3.3,3.3,6.6c1.65,1.65,1.65,3.3,1.65,4.95c0,3.3-1.65,4.95-4.95,6.6
		c-3.3,1.65-6.6,4.95-6.6,8.25c0,3.3-8.25,4.95-18.15,4.95c-13.2,0-28.06-3.3-29.7-6.6c0-3.3-3.3-4.95-8.25-4.95
		s-9.9,1.65-14.85,4.95c-6.6,4.95-261.65,8.25-286.4,8.25c-8.25,0-14.85,0-14.85-1.65c1.65-1.65,1.65-1.65,1.65-3.3h-1.65
		c-3.3,0-8.25,0-14.85,1.65l-14.85,4.95v84.17l-1.65,84.17h23.1c11.55,0,34.66-1.65,51.16-4.95c23.1-4.95,156.04-6.6,170.89-6.6
		c13.2,0,23.1,1.65,29.71,6.6c4.95,3.3,9.9,6.6,9.9,8.25c0,1.65,3.3,6.6,6.6,9.9c4.95,4.95,8.25,13.2,8.25,19.8
		c0,9.9-4.95,19.8-13.2,29.71c-6.6,8.25-14.85,14.85-18.15,14.85c-4.95,0-14.85,3.3-23.1,6.6c-11.55,4.95-137.88,8.25-157.68,8.25
		h-24.76c0-1.65,0-1.65,1.65-1.65c1.65-1.65,1.65-1.65,1.65-3.3c0,0-1.65,1.65-4.95,1.65c-4.95,0-18.15,1.65-29.71,3.3
		c-6.6,0-9.9,1.65-13.2,1.65c-6.6,0-9.9-1.65-11.55-4.95c-1.65-1.65-1.65-1.65-3.3-1.65h-1.65c0,1.65-1.65,94.07-1.65,207.94
		c0,130.38,0,188.14-3.3,188.14c-1.65,0-2.21,9.12-1.65,14.85c6.24,64.4,6.6,89.12,6.6,212.89c0,75.91,1.65,138.63,3.3,138.63
		c1.65,0,21.45-3.3,44.56-6.6c62.71-6.6,282.76-23.1,314.11-31.36c21.46-6.6,37.96-9.9,46.21-9.9c6.6,0,9.9,1.65,9.9,4.95v6.6
		c0,1.65,1.65,1.65,3.3,1.65h3.3c1.65,0,4.95,1.65,6.6,3.3c3.3,4.95,6.6,6.6,9.9,6.6c3.3,0,3.3,1.65,3.3,3.3v8.25
		c0,1.65,1.65,1.65,3.3,1.65c1.65,0,4.95,4.95,6.6,11.55C1801.36,1554.44,1801.36,1559.39,1801.36,1564.34z"/>
	<path class="st0" d="M1768.59,1391.77c1.18,9.09,2.36,17.35,2.36,23.13c0,12.39-3.54,19.83-9.43,22.31
		c-1.18,0.83-2.36,4.96-2.36,9.09v4.13c0,2.48,0,3.31-3.54,3.31c-2.36,0-5.89-0.83-11.79-1.65c-3.54-0.83-5.89-0.83-8.25-0.83
		c-3.54,0-4.72,0-7.07,1.65c-2.36,1.65-3.54,2.48-5.89,2.48c-1.18,0-2.36-0.83-4.72-3.3l-2.36-1.65c-1.18,0-1.18,0.83-1.18,2.48
		c0,3.31-1.18,4.96-7.07,4.96c-2.36,0-4.71,0-9.43-0.83c-4.71-0.83-7.07-0.83-9.43-0.83s-3.54,0-5.89,1.65
		c-2.36,0.83-4.72,2.48-7.07,2.48c-3.54,0-11.79-11.57-15.32-21.48c-2.36-4.13-3.54-6.61-3.54-6.61c-1.18,0-1.18,1.65-1.18,5.78
		c0,10.74-2.36,19.83-7.07,19.83c-1.18-0.83-3.54-0.83-3.54-0.83c-1.18,0-1.18-1.65-1.18-3.3c0-1.65,0-2.48-1.18-2.48
		c-1.18,0-2.36,0.83-4.71,1.65c-2.36,0.83-3.54,0.83-5.89,0.83c-2.36,0-4.71-1.65-5.89-7.44c-1.18-2.48-3.54-5.78-5.89-7.44
		c-7.07-4.13-14.15-26.44-41.26-122.28c-11.79-40.49-20.04-68.58-30.65-99.15c-5.89-19-12.97-42.14-15.32-51.23
		c-2.36-9.09-4.72-18.18-5.89-19.83c-1.18-2.48-15.32-92.54-18.86-114.85c-2.36-9.09-3.54-14.87-4.71-14.87v4.96
		c0,2.48-1.18,14.87-2.36,27.27c-5.89,49.57-8.25,68.58-10.61,71.06c0,0-1.18,1.65-1.18,4.13s1.18,7.44,2.36,12.39
		c1.18,9.92,1.18,33.05,1.18,69.4c-1.18,16.52-1.18,29.74-1.18,40.49c0,18.18,1.18,31.4,2.36,47.92
		c7.07,57.84,10.61,103.28,10.61,129.72c0,14.87-1.18,23.13-3.54,25.61c-1.18,0.83-2.36,1.65-3.54,1.65c-1.18,0-2.36-0.83-5.89-4.13
		c-2.36-2.48-3.54-3.31-4.71-3.31c0,0.83,2.36,4.13,4.71,9.92c2.36,6.61,3.54,9.91,3.54,11.57c0,2.48-1.18,2.48-3.54,2.48h-3.54
		c-4.71,0-10.61-0.83-12.97-1.65h-2.36c-1.18,0-2.36,0-2.36,0.83c0,0.83-3.54,2.48-7.07,4.13l-5.89,3.31l1.18-4.96
		c0-2.48,0-4.96-1.18-4.96h-1.18c0,0-1.18,0-1.18,0.83c0,0.83,0,1.65-1.18,1.65c-2.36,0-5.89-3.3-10.61-8.26l-7.07-7.44l1.18,9.91
		c0,7.44,0,9.91-4.72,9.91c-2.36,0-5.89-0.83-11.79-1.65c-2.36,0-4.72-0.83-5.89-0.83c-3.54,0-4.72-5.78-9.43-43.79
		c-2.36-25.61-4.71-85.1-10.61-115.67c-2.36-10.74-3.54-22.31-3.54-31.4c0-7.44,1.18-12.39,2.36-12.39c1.18,0,2.36-9.09,2.36-23.13
		c0-28.09,14.15-147.9,24.76-203.25c10.61-51.23,15.32-71.06,18.86-71.88c1.18-0.83,2.36-8.26,2.36-18.18
		c1.18-15.7,10.61-66.1,16.5-81.8c6.07-34.03,43.26-28.86,58.94-5.78c5.89,0,24.76,37.18,30.65,62.79
		c2.36,5.78,3.54,11.57,4.72,11.57c2.36,0,14.14,40.49,28.29,95.02c8.25,31.4,27.11,112.37,47.15,152.03
		c8.25,18.18,18.86,41.31,22.4,51.23l8.25,17.35l2.36-14.05c1.18-8.26,3.54-18.18,5.89-22.31c1.18-4.13,1.18-60.32,1.18-63.62v-4.13
		c0-9.09,3.54-42.96,11.79-102.45c2.36-14.87,4.71-36.35,5.89-47.1c2.36-23.96,9.43-57.84,11.79-64.45
		c1.18-3.3,2.36-10.74,3.54-18.18c1.18-6.61,2.36-14.87,3.54-17.35c1.18-2.48,3.54-12.39,4.72-22.31
		c3.54-15.7,3.54-17.35,10.61-23.13c0,0,28.29-6.61,30.65-7.44h2.36c1.18,0,3.54,0.83,4.72,1.65c3.54,3.31,7.07,9.09,7.07,11.57
		v0.83c0,0.83,1.18,2.48,2.36,3.3c2.36,0.83,3.54,3.31,3.54,9.09c0,3.31-1.18,7.44-1.18,14.05c-5.89,47.92-7.07,76.01-8.25,109.89
		c-2.36,50.4-7.07,219.78-7.07,224.74C1756.8,1293.45,1761.52,1346.33,1768.59,1391.77z"/>
	<path class="st0" d="M1880.58,1580.63c-1.65-1.65-1.65-3.3-1.65-4.95c0-3.3,3.3-8.25,9.9-11.55l8.25-4.95l-13.2-3.3
		c-6.6-3.3-13.2-6.6-14.85-9.9c-1.65-1.65-1.65-4.95-1.65-8.25c0-6.6,1.65-13.2,4.95-13.2c4.95,0,6.6-3.3,6.6-8.25
		c0-1.65,0-4.95-1.65-8.25c-3.3-3.3-3.3-4.95-3.3-6.6c0-1.65,0-3.3,1.65-3.3c3.3,0,4.95-1.65,4.95-3.3c0-1.65,4.95-8.25,9.9-14.85
		c4.95-6.6,8.25-13.2,8.25-14.85c0-1.65,6.6-4.95,16.5-8.25c9.9-1.65,23.1-6.6,29.71-9.9c4.95-3.3,11.55-6.6,14.85-6.6
		c1.65,0,16.5-3.3,33.01-8.25c28.06-8.25,28.06-8.25,52.81-36.31c14.85-16.5,26.4-28.05,28.06-28.05c8.25,0,46.21-59.41,51.16-79.22
		c1.65-8.25,3.3-28.06,3.3-44.56v-18.15c0-13.2-1.65-16.5-11.55-31.36c-13.2-16.5-14.85-18.15-31.36-21.45
		c-69.31-14.85-132.03-36.31-178.23-61.06c-37.96-19.8-80.86-62.71-97.37-100.67c-6.6-14.85-8.25-21.45-8.25-49.51
		c0-28.06,1.65-36.31,11.55-67.66c8.25-23.1,1.65-31.36,9.9-57.76c13.2-47.86,49.51-133.68,64.36-161.73
		c4.95-8.25,16.5-33.01,26.41-52.81c23.1-47.86,84.17-141.93,120.47-189.79c34.66-44.56,80.87-89.12,90.77-89.12h1.65
		c1.65,0,9.9-4.95,14.85-9.9c14.85-13.2,23.1-16.5,46.21-16.5c23.1,1.65,28.06,4.95,39.61,31.36c4.95,11.55,8.25,19.8,8.25,26.4
		c0,9.9-4.95,18.15-13.2,26.4c0,0-49.51,8.25-62.71,21.46c-49.51,49.51-140.28,216.19-181.53,333.36
		c-26.41,72.61-44.56,151.83-44.56,189.79v8.25c0,14.85,1.65,16.5,13.2,23.1c23.1,14.85,72.61,28.06,132.03,39.61
		c56.11,8.25,77.56,13.2,77.56,18.15c0,0,0,1.65-1.65,1.65c0,0-1.65,0-1.65,1.65c0,1.65,4.95,1.65,11.55,4.95
		c23.1,6.6,36.31,14.85,52.81,33.01c59.41,66.01,70.96,97.37,70.96,173.28c0,36.31-1.65,51.16-6.6,72.61
		c-8.25,33.01-42.91,105.62-67.66,143.58c-36.31,56.11-75.91,99.02-90.77,99.02c-1.65,0-3.3-1.65-4.95-3.3
		c0-1.65-1.65-1.65-3.3-1.65c-6.6,0-18.15,8.25-23.1,16.5c-3.3,9.9-8.25,13.2-24.76,18.15c-19.8,8.25-54.46,16.5-64.36,16.5h-1.65
		c-1.65,0-9.9-1.65-19.8-4.95c-8.25-3.3-18.15-6.6-21.45-8.25c-3.3-1.65-13.2-3.3-21.45-3.3
		C1916.88,1593.83,1883.88,1587.23,1880.58,1580.63z"/>
</g>
<g>
	<path class="st0" d="M3814.29,1066.94c-0.88-7.32-7.53-12.54-14.85-11.66l-48.39,5.83c-7.24-18.6-33.29-85.5-33.29-85.5
		c-0.85-2.38-2.77-4.5-4.98-5.9c0,0-153.72-107.17-163.45-113.95l44.73-64.94c0.4-0.59,0.8-1.29,1.11-1.96
		c2.97-6.5,0.11-14.17-6.39-17.14c-0.44-0.24-114.57-52.34-190.28-86.92c-30.03-13.72-54.02-24.68-62.47-28.56
		c-0.8-6.64-19.54-161.33-19.54-161.33c-0.27-2.23-1.16-4.39-2.7-6.24c-0.33-0.39-69.05-82.57-69.41-82.99
		c-1.72-2.23-4.08-3.85-7.01-4.5c0,0-171.38-37.38-181.96-39.68c7.58-11.23,26.49-39.26,26.49-39.26
		c2.93-4.21,0.88-10.33-3.99-11.93l-0.98-0.34l-375.44-128.94c-7.71-2.63-16.62-1.07-23.03,4.85c-0.15,0.14-10.91,10.07-28.97,26.75
		c-1.75,0.02-4.5,0.04-4.81,0.04c-1.42-0.28-3.02-0.6-3.02-0.6c-43.89-7.96-91.48-8.73-132.59,10.44
		c-6.07,2.91-11.81,6.35-17.23,10.06c6.3-1.97,12.61-3.52,18.97-4.49c18.82-2.82,37.9-1.32,56.35,2.76
		c15.82,3.56,31.11,8.87,45.81,15.51c-0.23,0.21-0.46,0.42-0.68,0.63c-0.78,0.01-2.74,0.02-2.93,0.03c-1.42-0.28-3.02-0.6-3.02-0.6
		c-43.89-7.96-91.48-8.73-132.59,10.44c-6.07,2.91-11.81,6.35-17.23,10.06c6.29-1.97,12.6-3.52,18.97-4.49
		c18.82-2.82,37.91-1.31,56.35,2.76c15.37,3.46,30.24,8.57,44.55,14.94c-130.39,120.4-339.5,313.47-340.23,314.15
		c-14.34,11.32-16.89,32.5-4.67,46.45c0,0,1.14,1.31,3.18,3.65c0.35,39.77,6.37,80.49,25.23,115.8c3.07,5.56,6.5,10.85,10.19,15.84
		c-1.97-5.91-3.55-11.85-4.71-17.84c-3.33-17.76-3.32-35.89-1.34-53.75c0.25-2.19,0.55-4.37,0.86-6.56
		c2.77,11.31,6.75,22.29,12.35,32.41c3.45,6.06,7.59,11.59,12.14,16.26c-2.2-12.45-0.74-24.57,2.51-36.38
		c17.87,20.55,35.79,41.15,47.61,54.74c-35.92,27.01-61.68,46.46-61.71,46.74c-17.82,13.4-20.55,39.52-5.83,56.29l211.6,243.09
		c2.53,2.89,6.12,4.91,10.23,5.37c25.77,2.93,51.52,3.11,77.3,2.6c12.79,18.66,27.23,39.74,29.8,43.65c1.12,1.63,2.66,3.1,4.49,4.15
		c0.75,0.56,253.23,145.14,308.36,176.85c0.08,0.36,0.13,0.63,0.13,0.63c11.31,31.52,28.67,62.76,56.57,82.29
		c4.17,2.86,8.56,5.3,13.01,7.43c-3.65-3.35-7.02-6.87-10.04-10.65c-8.9-11.17-15.09-24.15-19.36-37.68
		c-3.33-10.68-5.36-21.65-6.63-32.71l1.49-0.21c0.28,0.82,0.54,1.6,0.54,1.6c11.31,31.52,28.67,62.76,56.57,82.29
		c4.17,2.86,8.56,5.3,13.01,7.43c-3.65-3.35-7.02-6.87-10.04-10.65c-8.9-11.18-15.09-24.16-19.36-37.68
		c-4.82-15.48-7.2-31.52-7.86-47.65l119.51-16.95l4.8-0.68c3.41-0.48,6.7-2,9.38-4.55l58.76-56.2
		c34.41,27.5,37.28,29.79,73.74,58.92c-63.45,21.44-151.91,51.34-152.14,51.41c-5.17,1.38-9.3,5.59-9.98,11.25l-25.97,215.54
		c-0.17,1.37,0.08,2.79,0.78,4.09c0.08,0.15,60.66,111.28,60.75,111.44c3.29,6.01,10.76,8.51,17.03,5.53l0.74-0.35
		c0,0,6.6-3.13,8.27-3.93c18.19,26.08,74.81,107.24,74.81,107.24c6.88,9.9,22.44,6.32,24.43-5.59l4.45-19.27l61.37,31.27
		c1.32,0.66,2.82,1.17,4.35,1.4c7.84,1.2,15.16-4.19,16.35-12.02l0.22-1.46l7.81-51.26c0.52-2.84,0.24-5.79-1.07-8.58l-42.04-89.33
		l5-63.03l54.89-6.29c0.18,0.1,2.29,1.28,2.41,1.35c10.21,34.92,65.71,225.21,66.58,227.84c0.03,0.14,14.35,70.53,15.35,75.42
		c-2.59,10.13-17.61,68.87-17.61,68.87l44.44-63.2c1.3-1.86,1.88-4.26,1.39-6.66l-0.4-1.94l-15.9-78.12
		c-0.09-0.37-0.18-0.73-0.27-1.1l-68.45-234.38c-0.99-3.37-3.26-6.4-6.57-8.25c0,0-156.13-87.38-176.57-98.82l14.46-28.87
		l163.62,42.82c-7.56,11.28-13.37,24.03-10.03,36.95c-0.76-13.95,8.45-25.31,18.54-34.72l6.12,1.6
		c-9.92,12.98-19.74,28.74-15.61,44.74c-0.89-16.46,12.09-29.31,24.03-39.62l2.71,2.07c-7.76,11.42-13.83,24.4-10.44,37.55
		c-0.7-13.04,7.33-23.78,16.62-32.83l111.29,84.96l-110.53-119.3c-1.27-1.37-2.92-2.4-4.86-2.91l-0.98-0.26L3213.02,1429
		c-6.23-1.63-12.98,1.25-15.98,7.24l-25.47,50.86c-3.3,6.61-0.87,14.74,5.65,18.39c0,0,2.76,1.54,7.57,4.23l-24.66,91.34
		c-1.53,2.37-1.91,5.49-0.69,8.27l0.97,2.22c0,0,19.71,44.89,27.26,62.1c-13.96,6.64-37.6,17.86-49.95,23.73l-65.15-91.03
		c0.71-3.66,24.24-125.29,34.5-178.31c7.99,11.77,18.13,22.71,32.05,24.32c-16.56-5.37-23.79-23.68-29.19-39.09
		c0.75-3.89,1.31-6.77,1.6-8.29c0.65-0.15,1.64-0.37,2.82-0.64c8.78,14.74,20.39,31.73,38.05,33.77
		c-15.46-5.01-22.8-21.34-28.11-36.02c35.45-8.05,129.49-29.42,167.87-38.14c61.57,49.2,137.46,109.84,137.46,109.84
		c14.9,11.88,36.11,14.27,53.74,4.34c0.32-0.17,37.33-21.02,83.62-47.1c35.89,72.75,198.88,403.16,202.03,409.54
		c-2.14,11.2-22.14,115.98-22.14,115.98l49.93-113.95c1.07-2.46,1.2-5.37,0.12-8.06c-0.1-1.63-128.92-318.8-175.32-434.29
		c64.29-36.23,126.86-71.49,127.33-71.72l6.6-3.71c9.03-5.11,14.84-15.08,14.09-26.13c0,0-8.97-133.66-9.33-139.07l42.53-5.25
		c6.51-0.79,11.56-6.35,11.56-13.07v-0.65v-71.46C3814.38,1068.46,3814.41,1067.65,3814.29,1066.94z M3341.39,1597.37l-47.68-3.08
		c-4.4-0.29-8.42,2.74-9.26,7.18l-0.26,1.36l-14.03,73.93c-0.51,2.54-0.07,5.35,1.2,7.78l41.54,88.26l-7.26,30.81l-51.65-10.07
		l14.48-62.76c0.48-2.1,0.49-4.4-0.09-6.62l-25.84-99.89c5.57-9.56,31.92-54.78,36.13-62.01
		C3309.84,1579.72,3327.44,1589.56,3341.39,1597.37z M3211.84,1693.01c6.76-3.22,9.81-11.27,6.77-18.18c0,0-39.63-65.53-42.07-71.09
		l14.38-90.59c16.69,9.34,46.33,25.93,75.98,42.52c-13.02,15.07-50.57,58.53-50.57,58.53c-2.67,3.03-3.5,7.56-2.15,11.58
		l26.39,102.06l-15.11,65.48l-68.48-74.26C3177.28,1709.43,3211.84,1693.01,3211.84,1693.01z M2648.81,213.22
		c-0.08,0.08-0.16,0.15-0.24,0.23c-0.72-0.15-1.42-0.31-1.74-0.36c0,0-0.92-0.18-1.97-0.39
		C2646.17,212.75,2647.51,212.92,2648.81,213.22z M2611.96,247.25c-0.08,0.07-0.15,0.14-0.22,0.21c-0.08-0.02-0.16-0.03-0.22-0.04
		c0,0-0.92-0.18-1.97-0.39C2610.34,247.06,2611.15,247.12,2611.96,247.25z M3091.02,1268.51l-144.78,12.22
		c-19.21-8.12-318.85-134.72-324.62-137.16c-1.81-2.64-8.88-13-17.7-25.92c14.36-0.82,28.71-1.93,43.03-3.31
		c2.54-0.25,5.23-0.94,7.68-1.97c13.27-5.33,26.46-10.87,39.52-16.71c26.19-11.72,51.88-24.45,76.82-38.75
		c11.51-6.66,22.87-13.49,33.8-21.15c11.69,4.42,29.1,11,29.1,11l-22.57-36.71c-1.45-2.35-4.21-3.73-7.11-3.26l-7.1,1.14
		c-7.26,1.16-14.37,2.69-21.43,4.32c-47.77,11.3-94.01,28-139.12,47.15c-45.68,5.9-91.2,13.57-135.32,27.1
		c-8.11-13.52-113.01-188.49-141.82-236.55c39.06-38.32,192.5-188.89,212.36-208.38c20.92,19.93,67.99,64.79,67.99,64.79
		l-52.78-103.22c-0.42-0.81-0.96-1.68-1.52-2.43c-5.52-7.33-15.94-8.8-23.27-3.28l-3.46,2.6c-0.2,0.53-108.42,81.63-190.47,143.26
		c-19.11-35.33-46.54-86.07-62.93-116.38c34.45-34.31,379.18-377.65,396.6-395c26.21,6.68,343.39,87.49,360.69,91.9
		c-5.68,12.47-17.44,38.28-17.44,38.28s-0.05,0.12-0.06,0.13c-10.89,12.09-177.97,197.43-178.05,197.55
		c-5.23,5.83-7.37,14.22-4.86,22.24l0.83,2.67l91.72,293.1c5.03,22.39,31.52,32.51,49.82,18.43c0,0,116.69-89.58,128.52-98.66
		l65.22,42.61c-28.98,47.1-178.78,290.57-178.78,290.57c-3.91,6.23-1.97,14.47,4.13,18.68c0,0,69.84,55.8,119.44,95.44
		C3123.96,1253.54,3103.38,1262.91,3091.02,1268.51z M3786.54,1129.43l-50.47,10.99c-1.09,2.88-22.76,85.03-34.1,127.04
		c-22.75,9.6-195.97,82.74-238.23,100.59c-46.65-26.57-393.09-223.85-413.19-235.3c13.13-22.58,169.04-290.6,169.04-290.6
		c2.47-4.21,1.4-9.74-2.63-12.72l-76.33-60.2c-3.58-2.81-8.57-3.62-13.02-1.64l-2.21,0.98c0,0-75.58,33.4-118.63,52.43
		l-88.42-241.94c14.5-23.09,128.19-204.06,131.65-209.57l0,0c0,0,0.31-0.45,0.45-0.66c5.23,1.72,166.67,54.97,175.08,57.74
		c4.53,5.42,60.32,72.12,64.32,76.9c5.25,25.02,33.24,158.48,33.27,158.61c0.43,2,1.72,3.81,3.68,4.82c0,0,19.32,10.05,46.9,24.39
		c-0.82,2.34-1.64,4.66-2.43,7.09c-5.7,18.64-8.64,38.8-4.85,57.94c1.77-6.01,3.93-11.65,6.75-16.94
		c6.97-12.87,16.38-24.53,27.39-34.13c3.62,1.88,7.28,3.79,11.01,5.72c-4.97,11.07-7.86,23.15-7.65,35.14
		c-0.03,5.14,0.84,10.2,1.88,14.94c1.6-4.67,3.34-9.07,5.79-13.05c5.97-9.91,14.7-18.88,24.98-24.03c3.69,1.92,7.39,3.84,11.09,5.77
		c-4.51,8.24-7.15,17.57-7.02,26.84c-0.03,3.79,0.59,7.49,1.34,10.98c1.15-3.43,2.42-6.68,4.2-9.61
		c4.61-7.77,11.86-15.02,20.33-17.7l-0.89-1.17c46.55,24.21,89.07,46.32,98.17,51.05c-10.24,22.02-29.76,64.01-29.81,64.12
		c-1.32,2.84-0.7,6.33,1.75,8.54c0,0,147.07,132.63,150.76,135.95c4.84,6.57,37.51,50.85,47.52,64.42l-215.61,22.66
		c0,0-29.84-27.71-35.32-19.27c-5.84,8.99,34.02,26.07,34.02,26.07l269.47-9.15V1129.43z"/>
	<path class="st0" d="M2548.34,984.7l-80.18-115.22c9.26-21.93,35.48-84,40.01-94.72c17.95-0.32,159.59-2.78,159.59-2.78
		l-167.94-24.84c-4.43-0.65-9.06,1.21-11.73,5.17l-1.41,2.09l-71.4,105.71c-5.93,8.77-5.2,20.79,2.39,28.79
		c0.3,0.42,112.63,118.48,112.95,118.96l0.83,0.87c2.71,2.82,6.59,4.49,10.8,4.23l155.01-9.22l1.38-0.08
		c1.97-0.12,3.91-0.85,5.52-2.23l87.34-74.97l-98.51,49.64L2548.34,984.7z"/>
	<path class="st0" d="M3482.94,810.95l-8.18-18.94l-0.13-0.31h-0.35l-0.13,0.31l-14.18,32.81c-4.29,9.92,6.31,20,16.05,14.98
		l1.71-0.88l52.38-27.04L3482.94,810.95z"/>
	<path class="st0" d="M2726.88,412.54c7.5-5.98,15.63-11.04,24.16-15.32c-0.64,0.81-1.62,2.06-1.74,2.21
		c-0.64,0.54-1.35,1.14-1.35,1.14c-19.34,16.83-36.8,37.89-42.98,63.22c-0.88,3.77-1.4,7.58-1.68,11.34
		c1.38-3.53,2.95-6.92,4.81-10.12c5.5-9.45,13.04-17.47,21.5-24.28c10.79-8.61,22.88-15.34,35.61-20.55
		c1.87-0.72,12.75-9.32,16.74-13.89c23.34-26.75-7-51.23-34.37-35.37c-0.59,0.34-2.32,1.46-2.32,1.46
		c-19.35,16.83-36.8,37.89-42.99,63.22c-0.88,3.77-1.4,7.58-1.68,11.35c1.38-3.54,2.95-6.92,4.81-10.12
		C2710.89,427.37,2718.42,419.35,2726.88,412.54z"/>
	<path class="st0" d="M3130.96,580.88c1.12,0.03,2.23-0.22,3.22-0.73l28.84-14.97c0.56-0.29,1.16-0.5,1.78-0.62l35.41-6.83
		c0.84-0.16,1.7-0.16,2.53,0.01l18.71,3.74c6.35,1.27,10.51-6.44,5.97-11.06l-36.96-37.53c-2.82-2.65-7.46-0.97-7.94,2.87
		l-3.14,25.24c-0.47,3.77-4.95,5.48-7.81,2.98l-17.88-15.63c-1.02-0.89-2.37-1.3-3.72-1.13l-17.15,2.19
		c-4.41,0.56-5.68,6.34-1.92,8.7c3.45,2.18,2.72,7.41-1.2,8.55l-23.72,4.18c-4.34,0.76-4.88,6.75-0.76,8.31
		c5.96,2.25,11.22,4.46,10.49,4.98l-21.65,15.66L3130.96,580.88z"/>
	<path class="st0" d="M3143.52,680.49c10.21-11.03-5.58-26.38-16.31-15.89c0.72-0.45-0.62,1.16-0.93,1.52
		c-9.59,9.56-23.77,12.78-37.06,14.46c-4.07,0.41-12.21,0.75-16.3,0.69l7.83,2.72C3100.77,689.94,3125.2,693.37,3143.52,680.49z"/>
	<path class="st0" d="M3138.37,689.26c-14.63,10.46-33.8,24.44-34.23,44c4.07-18.14,23.88-27.08,39.25-34.08
		C3150.9,696.04,3145.32,685.07,3138.37,689.26z"/>
	<path class="st0" d="M3249.96,649.77c-3.82-22.31-12.2-41.75-29.1-57.08c-12.89-11.69-33.57-6.45-39.85,9.78
		c-7.88,20.36-15.14,40.43-22.86,60.33c-2.64,6.81,2.27,14.19,9.58,14.41l56.84,1.72C3240.33,679.39,3252.62,665.3,3249.96,649.77z
		 M3220.16,657.36l-35.75-1.08c-4.59-0.14-7.69-4.77-6.02-9.06c4.85-12.51,9.42-25.13,14.38-37.94c3.95-10.21,16.95-13.5,25.06-6.15
		c10.63,9.64,15.9,21.86,18.3,35.89C3237.81,648.8,3230.07,657.66,3220.16,657.36z"/>
</g>
</svg>
